# xmcd CD database file
#
# Track frame offsets:
#	150
#	20490
#	40960
#	61287
#	85155
#	107615
#	123852
#	141807
#	164460
#	185920
#	205020
#	225215
#	245337
#	275700
#	295700
#
# Disc length: 4179 seconds
#
# Revision: 2
# Processed by: cddbd v1.5.2PL0 Copyright (c) Steve Scherf et al.
# Submitted via: CDex 1.70beta3
#
DISCID=ce10510f
DTITLE=JAYWALK - DO YOU REMEMBER WHEN?～JAYWALK BEST POPS SINCE 1980
DYEAR=2000
DGENRE=Blues
TTITLE0=JOE
TTITLE1=風に向かって、歩きたい
TTITLE2=その胸のヒーロー
TTITLE3=何も言えなくて…夏
TTITLE4=夢は風のように
TTITLE5=あいつだけの“Happy Birthday”
TTITLE6=YES,I DO
TTITLE7=真夜中のプレステージ
TTITLE8=HELLO!I’M A DREAMER
TTITLE9=ピンクのラジオ
TTITLE10=STARGAZER
TTITLE11=RELAX
TTITLE12=心の鐘を叩いてくれ
TTITLE13=B-CLASS
TTITLE14=DIVORCE
EXTD=YEAR: 2000
EXTT0=
EXTT1=
EXTT2=
EXTT3=
EXTT4=
EXTT5=
EXTT6=
EXTT7=
EXTT8=
EXTT9=
EXTT10=
EXTT11=
EXTT12=
EXTT13=
EXTT14=
PLAYORDER=
